<svg width="1059" height="1023" viewBox="0 0 1059 1023" fill="none" xmlns="http://www.w3.org/2000/svg">
<g clip-path="url(#clip0_714_3820)">
<path fill-rule="evenodd" clip-rule="evenodd" d="M503 74.1431C488.813 75.6081 466.364 79.8251 450 84.1011C418.576 92.3101 390.415 104.982 362.329 123.549C338.061 139.592 323.462 155.578 296.623 195.5C291.076 203.75 285.38 213.2 283.964 216.5C282.548 219.8 278.218 227.225 274.342 233C263.915 248.537 261.931 252.49 253.013 275.5C248.536 287.05 242.489 302.125 239.573 309C236.658 315.875 233.738 323.154 233.083 325.175C232.429 327.197 229.245 332.101 226.008 336.073C215.653 348.777 210.279 361.411 209.022 376C208.228 385.21 198.951 422.226 195.99 428C190.645 438.421 177.576 442.193 165.77 436.723C160.541 434.301 157.695 432.009 153.125 426.539C150.941 423.926 150.668 423.842 149.744 425.493C149.191 426.481 148.793 432.737 148.861 439.395C149.071 460.318 152.13 478.565 157.678 492C164.999 509.729 167.071 513.262 174.256 520.27L181.197 527.04L181.068 540.77C180.938 554.632 181.968 560.876 185.505 567.657C186.32 569.221 186.995 572.075 187.003 574C187.021 578.074 190.564 592.441 195.04 606.587C202.825 631.193 212.148 647.907 227.255 664.342C232.896 670.479 240.312 678.902 243.734 683.061C247.156 687.219 252.666 692.584 255.978 694.984C265.096 701.589 264.009 703.952 250 707.983C226.862 714.641 203.141 723.931 190.5 731.286C180.531 737.087 153.281 754.974 144.343 761.584C140.177 764.665 134.233 769.776 131.134 772.943C128.036 776.11 122.905 780.166 119.733 781.955L113.967 785.21L116.163 788.855C186.081 904.87 300.278 987.89 425.945 1014.06C460.611 1021.28 483.6 1023.52 522 1023.41C553.897 1023.31 574.282 1021.63 599.189 1017.06C694.433 999.558 780.003 954.116 849.344 884.211L860.188 873.278L845.344 857.328C825.678 836.195 818.001 827.403 814.637 822.159C813.105 819.772 803.11 808.889 792.426 797.975C781.742 787.061 773 777.681 773 777.131C773 776.582 769.85 772.31 766 767.638C762.15 762.967 759 758.499 759 757.71C759 756.717 760.686 756.077 764.483 755.631C772.115 754.734 788.21 749.322 799.5 743.858C802.081 742.608 805.096 739.719 808 735.711C814.116 727.27 818.957 722 820.594 722C822.765 722 839.02 705.37 846.865 695.124C859.845 678.17 865.517 665.694 867.083 650.651C867.59 645.784 868.23 641.437 868.506 640.991C868.781 640.545 872.748 637.691 877.32 634.648C886.105 628.803 897.232 618.158 904.131 609C908.41 603.32 911.517 597.184 910.586 596.252C910.294 595.96 907.425 596.459 904.212 597.361C896.536 599.514 886.592 599.44 879.312 597.174C869.783 594.208 854.093 584.276 855.456 582.072C855.731 581.627 857.783 580.971 860.016 580.613C864.916 579.83 865.84 577.985 863.642 573.375C862.739 571.482 862 569.762 862 569.554C862 569.346 864.88 567.121 868.399 564.609C885.705 552.26 897.213 525.1 901.048 487.556C902.255 475.74 901.73 457.33 900.14 455.74C899.708 455.308 896.745 456.107 893.557 457.517C889.776 459.189 885.105 460.282 880.13 460.658C867.78 461.593 861.048 458.808 857.448 451.277C853.519 443.055 852.89 437.25 852.002 401C851.042 361.778 849.824 349.436 844.403 324C834.857 279.21 827.674 259.003 808.679 223.5C793.777 195.648 779.98 176.932 758.525 155.467C735.47 132.4 717.064 121.119 695.245 116.684L684.5 114.5V111.176C684.5 108.094 684.135 107.72 679.5 106.046C676.75 105.053 668.875 101.777 662 98.7661C621.085 80.8461 581.373 72.8621 534.506 73.1331C521.853 73.2061 507.675 73.6611 503 74.1431ZM627.545 232.372L632.591 233.956L633.777 239.728C635.917 250.14 636.993 265.02 637.991 298C638.62 318.773 639.533 333.567 640.519 339C643.938 357.824 649.68 371.612 661.375 389.08C664.469 393.701 667 397.941 667 398.502C667 399.063 664.545 401.481 661.543 403.875C657.212 407.331 656.336 408.492 657.293 409.503C660.165 412.534 661.802 414.864 661.366 415.3C661.108 415.558 666.733 421.784 673.865 429.135C680.998 436.486 686.469 442.88 686.023 443.344C684.547 444.88 670.858 441.996 660.1 437.881C629.876 426.322 623.304 424.963 593.619 424.137C566.826 423.391 566.708 423.417 551.572 433.327L542.093 439.534L531.297 438.786C516.255 437.745 516.107 437.722 515.587 436.367C515.332 435.7 514.256 435.382 513.198 435.659C511.002 436.233 501.084 431.383 500.306 429.354C500.022 428.616 499.311 428.308 498.725 428.67C498.079 429.069 497.888 428.734 498.239 427.819C498.569 426.96 497.996 425.718 496.909 424.934C494.508 423.204 494.524 422.379 497.114 413.852C498.276 410.025 499.004 406.67 498.731 406.398C498.458 406.125 496.837 408.888 495.129 412.538C493.421 416.188 491.681 419.023 491.262 418.837C486.558 416.755 476.03 410.254 476.017 409.424C476.008 408.833 477.125 405.129 478.5 401.193C481.262 393.287 481.861 388.744 479.58 393C478.843 394.375 477.186 398.799 475.897 402.83C473.572 410.108 473.533 410.156 470.527 409.54C438.425 402.959 412.627 401.909 398.239 406.597C391.416 408.82 392.315 409.631 399.832 408.036C403.149 407.332 408.065 407.054 411.107 407.398C414.073 407.734 417.512 408.119 418.75 408.254C422.256 408.637 421.403 409.68 417.01 410.382C410.201 411.471 402.755 414.759 390.474 422.1C377.439 429.891 370.452 433 365.978 433C362.182 433 353 427.397 353 425.081C353 422.454 360.562 395.4 364.091 385.403C365.793 380.581 368.869 373.005 370.927 368.568C378.753 351.692 382.887 349.428 414 344.97C459.412 338.463 476.541 328.544 511.512 288.5C527.21 270.525 537.543 260.689 552.689 249.303C563.844 240.918 565.797 239.845 575.689 236.672C581.635 234.764 588.975 232.712 592 232.112C595.025 231.511 598.4 230.815 599.5 230.566C603.656 229.623 622.696 230.849 627.545 232.372ZM524 328.497C532.525 329.84 548.214 331.868 558.865 333.002C576.673 334.9 603.716 338.982 608.5 340.495C609.826 340.914 609.657 340.641 608 339.686C604.403 337.613 589.41 334.316 575.5 332.54C550.048 329.29 528.097 326.973 518.5 326.523L508.5 326.055L524 328.497ZM544.382 403.5C544.384 410.1 544.546 412.67 544.741 409.211C544.937 405.752 544.936 400.352 544.738 397.211C544.54 394.07 544.38 396.9 544.382 403.5ZM412.75 409.662C413.438 409.94 414.563 409.94 415.25 409.662C415.938 409.385 415.375 409.158 414 409.158C412.625 409.158 412.063 409.385 412.75 409.662ZM662.729 409.604C662.397 409.936 661.534 409.972 660.813 409.683C660.015 409.364 660.252 409.127 661.417 409.079C662.471 409.036 663.061 409.272 662.729 409.604ZM339.856 423C347.541 429.875 353.645 435.685 353.421 435.911C353.196 436.136 352.185 435.573 351.175 434.658C350.164 433.744 348.999 433.334 348.586 433.748C348.172 434.162 347.983 434.023 348.167 433.44C348.581 432.123 336.725 421 334.908 421C334.18 421 335.571 423.025 338 425.5C340.429 427.975 342.197 430 341.929 430C341.661 430 338.53 426.973 334.971 423.274C331.412 419.575 329.738 417.629 331.25 418.949C336.318 423.372 334.067 419.383 328.75 414.519C325.863 411.877 324.036 409.892 324.691 410.108C325.346 410.324 332.17 416.125 339.856 423ZM304.887 432.467C303.762 434.374 303.135 436.41 303.495 436.992C303.855 437.574 303.57 437.926 302.863 437.775C302.105 437.613 301.531 438.526 301.467 440C301.406 441.375 301.056 443.625 300.688 445C300.32 446.375 300.268 446.963 300.574 446.306C300.879 445.65 301.734 445.345 302.474 445.628C303.247 445.925 304.099 445.263 304.477 444.072C304.839 442.933 305.61 442 306.19 442C306.856 442 306.797 442.54 306.028 443.466C305.359 444.273 304.993 445.478 305.214 446.143C305.436 446.809 306.671 445.65 307.958 443.568C310.83 438.921 315 434.318 315 435.795C315 436.393 314.608 437.124 314.129 437.42C313.066 438.077 311.823 443.112 311.393 448.5C311.218 450.7 310.884 453.834 310.651 455.464L310.228 458.428L312.864 455.449C314.314 453.811 316.306 451.352 317.291 449.985C319.036 447.564 319.067 447.858 318.515 461.5C318.204 469.2 317.671 479.438 317.331 484.25C316.964 489.442 317.093 493 317.646 493C319.768 493 328.174 469.782 333.127 450.243C335.131 442.336 335.281 440.66 334.157 438.743C332.133 435.29 342.309 446.559 349.073 455.26C353.121 460.467 356.775 463.973 360.184 465.92C365.092 468.723 365.356 469.104 367.964 477.161C374.796 498.266 385.706 511.735 402.965 520.375C407.849 522.82 411.543 525.142 411.173 525.535C410.803 525.927 411.569 525.919 412.875 525.517C414.548 525.002 415.041 525.125 414.541 525.933C414.042 526.741 414.67 526.897 416.666 526.459C418.948 525.959 419.208 526.065 418 527.003C416.806 527.931 417.214 528.049 420 527.586C422.289 527.204 423.009 527.318 422.081 527.915C419.676 529.461 429.304 530.51 444.731 530.383L458.962 530.267L444.413 545.575C436.41 553.995 427.737 562.822 425.139 565.192C418.347 571.386 418.239 572.22 424.682 568.73C430.945 565.338 439.326 563.04 445.519 563.016L449.539 563L449.168 555.661C448.746 547.296 449.902 544.109 456.687 534.923C460.886 529.24 463.331 528.01 475.499 525.464C478.184 524.903 478.319 524.706 476.788 523.587C475.848 522.9 474.612 521.109 474.041 519.608C473.369 517.84 472.563 517.136 471.752 517.609C471.063 518.011 472.999 515.675 476.053 512.419C485.104 502.771 491.609 491.946 495.509 480.045C498.303 471.521 503.249 462.641 506 461.214C509.37 459.465 518.493 460.179 523.5 462.583C526.551 464.048 527.576 465.166 527.821 467.297L528.142 470.09L530.159 467.525C531.269 466.114 533.454 464.3 535.014 463.493C537.772 462.067 537.91 462.119 539.899 465.336C541.69 468.235 541.833 469.388 541.045 474.574C540.55 477.833 539.869 485.675 539.532 492C537.987 520.975 535.549 545.474 532.873 558.895C532.079 562.88 531.542 563.926 530.818 562.895C530.119 561.9 530.007 562.277 530.428 564.208C530.761 565.739 530.319 568.662 529.411 570.932C527.687 575.239 526.765 575.074 524.201 570C523.507 568.625 523.129 568.198 523.362 569.052C523.595 569.906 522.677 571.671 521.321 572.976C519.876 574.367 519.05 576.083 519.323 577.128C519.616 578.247 518.9 579.491 517.394 580.477C516.077 581.34 515 582.711 515 583.523C515 584.335 514.523 585 513.941 585C513.359 585 513.102 584.643 513.372 584.208C513.641 583.772 512.88 583.349 511.681 583.268C509.558 583.125 509.566 583.176 512 585.215C514.434 587.255 514.441 587.295 512.251 586.749C511.014 586.44 509.803 586.509 509.561 586.902C509.318 587.295 510.932 587.723 513.147 587.854C515.499 587.992 516.93 587.695 516.586 587.139C516.254 586.602 516.863 586.413 517.983 586.706C519.075 586.991 522.955 586.03 526.604 584.569C547.483 576.21 566.936 576.051 582.066 584.116C591.32 589.048 594.878 593.266 600.287 605.715C606.194 619.312 609.454 623.802 617.151 628.942C624.861 634.09 631.234 636.044 642.5 636.712C662.914 637.922 680.987 628.558 692.125 611C697.685 602.235 697.668 602.269 695.629 603.925C694.014 605.236 693.925 605.116 694.516 602.425L695.158 599.5L693.222 601.886C692.13 603.232 691.017 603.836 690.667 603.271C689.962 602.129 685.015 602.436 684.103 603.678C683.772 604.13 682.884 604.63 682.131 604.79C681.082 605.012 680.918 604.253 681.427 601.54C682.482 595.914 680.342 597.397 678.959 603.25C675.834 616.474 668.371 627.287 659.794 631.021C652.659 634.127 638.394 634.441 632.711 631.617C626.633 628.598 619.895 621.873 613.477 612.42C610.19 607.578 604.698 600.563 601.273 596.83C592.81 587.604 587.572 576.933 580.987 555.5C579.974 552.2 578.706 548.082 578.17 546.348C577.213 543.253 577.244 543.211 579.848 544.066C596.784 549.622 599.893 550.275 611.663 550.748C637.543 551.786 650.003 546.364 661.402 529.104C668.773 517.944 675.04 503.29 675.225 496.785C675.269 495.253 675.744 494 676.282 494C678.725 494 703.904 521.946 707.146 528.255C713.697 541.006 713.421 564.449 706.39 592.369C705.023 597.797 704.09 602.424 704.317 602.65C704.544 602.877 707.665 597.837 711.253 591.451C715.979 583.04 719.075 575.796 722.483 565.17C725.072 557.101 727.793 549.15 728.531 547.5C729.853 544.543 729.873 544.581 729.936 550.14C730.003 556.081 727.939 568.76 725.399 578C722.503 588.534 722.608 587.781 724.369 585.386C727.82 580.692 733.197 566.405 735.514 555.774C738.573 541.735 741.276 532 742.115 532C742.467 532 743.324 532.685 744.019 533.523C745.278 535.04 745.004 544.922 743.436 554.5C742.833 558.186 742.896 558.343 744.246 556.5C746.664 553.197 749.639 544.152 752.139 532.5C754.206 522.868 754.477 519.137 754.317 502.5C754.216 492.05 753.695 479.225 753.159 474C752.623 468.775 752.563 464.102 753.026 463.616C754.267 462.313 761.682 474.356 770.502 492C774.763 500.525 780.274 511.017 782.75 515.315L787.25 523.13L786.576 540.315C786.205 549.767 785.265 561.1 784.486 565.5C783.707 569.9 782.358 578.45 781.489 584.5C779.619 597.51 774.148 619.092 769.997 629.841C768.369 634.053 764.969 641.1 762.44 645.5C754.247 659.752 752.16 664.533 748.413 677.624C735.679 722.118 717.833 750.404 691.5 767.831C669.541 782.363 613.043 804.249 578.5 811.605C568.828 813.665 549.57 816.875 549.173 816.494C548.994 816.321 552.144 814.237 556.173 811.862C566.713 805.65 581.553 790.557 585.854 781.677C595.371 762.025 597.675 745.683 594.486 720.47C591.864 699.748 591.118 696.984 591.527 709.5C592.047 725.434 590.408 742.605 587.483 751.863C582.566 767.429 570.113 784.37 554.983 796.074C546.614 802.549 544.928 804.337 550.042 801.316C552.707 799.742 553.211 799.704 554.108 801.009C554.908 802.176 555.002 802.036 554.536 800.368C554.129 798.913 554.471 798.033 555.612 797.596C556.971 797.074 557.061 797.222 556.093 798.388C555.253 799.4 555.222 800.019 555.985 800.491C557.224 801.257 552.98 804.991 550.842 805.015C549.73 805.028 549.733 805.178 550.857 805.89C552.615 807.004 550.565 808.431 548.4 807.6C547.573 807.283 547.108 807.366 547.367 807.784C548.257 809.224 527.586 817.191 519 818.717C502.849 821.588 477.238 819.296 459.248 813.37C440.209 807.099 430.497 800.513 422.14 788.206C418.296 782.546 417.27 781.758 407.751 777.148C402.113 774.417 393.675 770.058 389 767.46C384.325 764.863 379.15 762.007 377.5 761.114C348.436 745.385 323.356 723.98 310.246 703.713C297.822 684.508 292.45 662.086 288.633 613.5C288.417 610.75 286.827 604.728 285.099 600.119C281.254 589.859 277.356 570.755 276.505 558C275.819 547.726 278.012 512.448 280.422 495C281.219 489.225 282.183 478.829 282.563 471.898L283.254 459.296L290.667 449.898C294.744 444.729 298.545 440.624 299.114 440.775C299.683 440.926 299.876 440.609 299.543 440.07C299.21 439.532 300.569 436.82 302.563 434.045C306.761 428.202 307.833 427.474 304.887 432.467ZM444.45 433.065C445.042 433.647 443.885 434 441.382 434C439.173 434 434.075 434.864 430.054 435.919C426.033 436.975 422.014 437.608 421.122 437.325C419.864 436.927 419.801 437.027 420.842 437.772C421.872 438.508 421.621 438.839 419.767 439.194C417.571 439.614 417.447 439.451 418.409 437.413C418.991 436.18 419.925 435.444 420.484 435.777C421.043 436.111 420.898 435.641 420.162 434.733C418.988 433.285 419.171 433.005 421.662 432.454C423.223 432.108 424.95 431.647 425.5 431.43C427.312 430.715 443.479 432.11 444.45 433.065ZM454.452 438.068C457.491 439.205 462.121 441.682 464.739 443.573C467.358 445.463 471.075 447.795 473 448.755C477.183 450.841 478.92 452.798 478.984 455.5C479.023 457.16 479.195 457.245 480 456C480.836 454.706 480.971 454.731 480.985 456.183C480.993 457.108 480.093 458.153 478.985 458.505C477.877 458.856 477.259 459.61 477.61 460.179C478.034 460.865 478.498 460.811 478.987 460.021C482.27 454.708 484.192 468.185 481.911 480.526C480.254 489.487 474.112 500.806 471.712 499.322C471.15 498.975 470.975 499.15 471.322 499.712C472.021 500.844 468.485 504.465 466.66 504.487C466.022 504.494 462.575 506.137 459 508.137C448.857 513.812 442.868 515.417 432 515.374C421.921 515.334 413.918 513.535 408.25 510.036C405.441 508.302 405 507.475 405 503.945C405 501.579 406.368 496.629 408.25 492.18C411.002 485.677 411.485 483.351 411.403 477C411.338 471.989 410.622 467.753 409.244 464.237C407.252 459.153 407.245 458.939 409.025 457.987C410.039 457.444 411.6 457 412.493 457C413.427 457 413.827 456.529 413.434 455.893C412.979 455.156 413.426 455 414.769 455.427C416.305 455.914 416.754 455.64 416.645 454.284C416.488 452.349 423.16 448.502 428.5 447.448C431.378 446.88 431.503 447.003 431.576 450.457C431.714 456.968 438.538 463.358 446.654 464.575C452.162 465.401 455.144 464.005 457.596 459.452C459.073 456.709 459.191 455.529 458.283 452.571C457.68 450.607 457.495 449 457.872 449C459.093 449 475.977 462.12 480.232 466.375C481.589 467.732 481.75 467.636 481.75 465.465C481.75 464.129 481.353 463.282 480.867 463.582C479.841 464.216 476.902 461.536 476.636 459.723C476.37 457.912 473 453.336 473 454.787C473 455.566 471.744 455.195 469.583 453.779C467.704 452.547 466.399 451.163 466.684 450.703C466.968 450.243 466.593 449.986 465.85 450.133C465.108 450.28 462.551 449.382 460.169 448.138C454.731 445.299 441.981 441.992 436.59 442.024C434.341 442.037 429.8 443.199 426.5 444.607C423.2 446.015 419.564 447.307 418.419 447.477C417.275 447.647 414.504 448.723 412.262 449.866C407.145 452.477 399.992 454.971 400.026 454.133C400.04 453.785 401.8 452.695 403.936 451.71C406.073 450.726 411.662 447.509 416.357 444.561C421.053 441.614 426.83 438.517 429.197 437.68C435.685 435.385 447.778 435.571 454.452 438.068ZM351.431 439.903C351.168 440.166 350.176 439.57 349.226 438.579C347.577 436.857 347.598 436.835 349.705 438.1C350.917 438.829 351.694 439.64 351.431 439.903ZM358.729 437.604C358.397 437.936 357.534 437.972 356.813 437.683C356.015 437.364 356.252 437.127 357.417 437.079C358.471 437.036 359.061 437.272 358.729 437.604ZM535.701 440.864C539.661 441.251 543.248 441.915 543.672 442.339C545.03 443.697 541.768 444.862 539.268 443.912C537.949 443.41 534.537 442.999 531.685 442.997C527.166 442.995 515.706 441.935 505.218 440.549C502.449 440.183 501.156 440.808 496.935 444.558C491.615 449.282 489.951 449.851 488.07 447.584C487.136 446.459 487.28 446.046 488.771 445.573C489.803 445.245 491.965 443.58 493.574 441.873L496.5 438.768L512.5 439.464C521.3 439.847 531.74 440.477 535.701 440.864ZM309.731 448.92C309.296 450.583 309.426 450.974 310.168 450.232C310.75 449.65 311.028 448.585 310.788 447.863C310.538 447.114 310.085 447.568 309.731 448.92ZM595.5 450.385C607.629 451.781 623.532 455.236 627.812 457.405C632.814 459.939 634.243 461.252 635.338 464.313C635.95 466.026 635.834 466.021 633.243 464.227C628.515 460.954 627.589 460.531 628.58 462.095C629.069 462.868 629.476 463.95 629.485 464.5C629.493 465.05 629.95 465.539 630.5 465.586C632.822 465.787 635.054 467.382 637.498 470.587C639.578 473.313 639.778 474 638.492 474C637.47 474 637.156 473.543 637.633 472.75C638.232 471.753 638.071 471.753 636.837 472.752C635.562 473.784 633.99 473.405 627.895 470.595C610.906 462.765 603.42 462.393 583 468.363C576.675 470.213 571.308 471.558 571.073 471.353C570.32 470.694 574.269 468.218 583.586 463.507C598.728 455.85 608.654 455.496 624 462.064C627.181 463.426 627.914 463.54 626.5 462.452C625.4 461.605 620.693 459.751 616.039 458.331C605.717 455.182 599.33 455.518 587.5 459.833C573.832 464.818 574.835 464.841 576.626 459.584C578.725 453.425 583.844 448.981 588.219 449.52C590.024 449.742 593.3 450.131 595.5 450.385ZM314 450.809C314 451.254 313.318 452.491 312.484 453.559C311.078 455.359 311.053 455.3 312.144 452.75C313.322 449.999 314 449.289 314 450.809ZM744 454.11C745.274 455.026 745.241 455.106 743.782 454.638C742.837 454.335 741.798 454.518 741.473 455.044C741.148 455.57 741.921 456.042 743.191 456.094C744.461 456.146 742.575 456.778 739 457.499C735.425 458.221 721.855 462.228 708.844 466.405C695.834 470.582 684.359 473.965 683.344 473.923C682.33 473.881 683.3 473.303 685.5 472.639C688.117 471.849 689.065 471.162 688.241 470.651C687.549 470.222 686.095 470.152 685.011 470.496C683.927 470.84 682.244 470.673 681.27 470.125C679.794 469.294 679.999 469.136 682.5 469.173C684.15 469.198 696.525 465.842 710 461.717C741.703 452.01 741.229 452.116 744 454.11ZM467.25 459.542C465.542 461.419 465.678 462 467.826 462C470.215 462 473.669 465.762 474.554 469.33C475.081 471.451 474.701 472.913 473.041 475.159C471.821 476.808 471.033 478.366 471.288 478.621C472.138 479.471 477 472.876 477 470.874C477 468.095 474.668 463.96 471.339 460.834C468.962 458.602 468.297 458.392 467.25 459.542ZM410.269 459.693C411.242 459.947 412.592 459.93 413.269 459.656C413.946 459.382 413.15 459.175 411.5 459.195C409.85 459.215 409.296 459.439 410.269 459.693ZM720.8 460.501C718.765 461.249 715.416 462.128 713.358 462.455C709.352 463.092 708.308 463.641 709.271 464.604C709.603 464.936 713.841 463.847 718.688 462.183C723.534 460.519 726.825 459.154 726 459.149C725.175 459.145 722.835 459.753 720.8 460.501ZM666 465C666 465.55 665.802 466 665.559 466C665.316 466 664.84 465.55 664.5 465C664.16 464.45 664.359 464 664.941 464C665.523 464 666 464.45 666 465ZM706 465C706 465.55 706.477 466 707.059 466C707.641 466 707.84 465.55 707.5 465C707.16 464.45 706.684 464 706.441 464C706.198 464 706 464.45 706 465ZM701 466.094C701 466.592 699.65 467 698 467C696.35 467 695 467.477 695 468.059C695 468.641 694.624 468.886 694.164 468.602C693.705 468.317 692.017 468.46 690.414 468.919C688.146 469.569 687.862 469.906 689.135 470.439C690.034 470.817 694.016 470.036 697.985 468.705C703.305 466.921 704.648 466.141 703.1 465.736C701.945 465.434 701 465.595 701 466.094ZM610.5 469C610.84 469.55 610.218 470 609.118 470C608.018 470 606.84 469.55 606.5 469C606.16 468.45 606.782 468 607.882 468C608.982 468 610.16 468.45 610.5 469ZM591.405 474.129C592.249 479.41 596.37 483.351 602.721 484.953C608.159 486.325 632.056 486.499 632.927 485.172C633.242 484.692 634.485 483.781 635.689 483.147C638.06 481.899 639.361 482.895 638.453 485.262C638.01 486.416 639.558 486.842 646.194 487.396C650.755 487.776 654.827 488.427 655.242 488.842C656.316 489.916 653.48 500.119 650.44 506.118C649.023 508.914 648.421 510.858 649.102 510.437C649.989 509.889 650.15 510.214 649.671 511.586C649.232 512.844 649.895 512.471 651.607 510.5L654.212 507.5L652.356 510.827C651.335 512.657 649.851 514.682 649.058 515.327C647.905 516.265 647.786 516.218 648.463 515.095C649.041 514.135 648.939 513.92 648.138 514.415C647.494 514.813 647.238 515.577 647.57 516.113C648.346 517.369 646.061 520.155 644.862 519.415C644.361 519.105 644.074 519.447 644.225 520.176C644.376 520.904 643.904 521.376 643.176 521.225C642.447 521.074 642.118 521.382 642.444 521.91C643.152 523.055 637.145 527.747 635 527.725C634.175 527.716 629.955 528.714 625.622 529.943C611.625 533.911 595.747 532.152 589.996 525.996C588.449 524.339 586.427 520.082 585.164 515.824C582.55 507.004 582.546 506.925 584.75 507.595C585.712 507.888 585.319 507.439 583.876 506.598C582.178 505.608 580.707 503.381 579.706 500.284C577.288 492.804 576.024 484.422 576.847 481.326C577.261 479.772 577.526 477.499 577.437 476.276C577.348 475.053 577.664 474.292 578.138 474.585C578.612 474.878 579 474.69 579 474.166C579 472.995 585.719 470.122 588.622 470.052C590.348 470.01 590.868 470.77 591.405 474.129ZM632.825 476C635.643 477.925 637.96 479.849 637.974 480.275C638.017 481.572 632.765 483.165 631.76 482.16C631.225 481.625 629.32 481.6 627.173 482.099C620.084 483.746 619.919 483.631 621.646 478.25C622.485 475.637 623.34 472.946 623.547 472.268C624.039 470.658 626.39 471.604 632.825 476ZM888.813 480.211C888.575 482.648 887.53 484.101 884.476 486.241C882.262 487.793 879.112 489.16 877.476 489.281C872.468 489.65 873.74 486.378 880.5 481.498C887.899 476.156 889.229 475.95 888.813 480.211ZM467.872 480.75C466.629 482.336 466.664 482.371 468.25 481.128C469.916 479.821 470.445 479 469.622 479C469.415 479 468.627 479.788 467.872 480.75ZM462 484.022C455.721 487.5 447.859 489.303 439 489.3C430.809 489.296 430.677 489.332 435.364 490.277C441.872 491.59 451.357 489.957 459.578 486.11C463.11 484.457 466 482.856 466 482.553C466 481.808 465.993 481.811 462 484.022ZM426 488C426.825 488.533 428.175 488.945 429 488.914C429.989 488.878 429.819 488.567 428.5 488C425.751 486.819 424.172 486.819 426 488ZM620.5 509.682C616.998 510.687 612.054 510.998 604 510.72C595.595 510.431 593.577 510.569 596.5 511.233C602.442 512.583 619.842 511.648 624 509.756C628.279 507.809 627.118 507.784 620.5 509.682ZM331.53 531.516C331.82 537.975 332.842 544.501 334.41 549.892C335.747 554.49 336.58 558.983 336.261 559.876C335.942 560.769 336.051 561.164 336.503 560.754C337.637 559.725 341.212 568.006 340.468 569.937C339.94 571.306 339.743 571.282 338.879 569.742C338.336 568.775 338.084 567.65 338.318 567.242C338.552 566.834 337.87 565.6 336.801 564.5C334.939 562.584 334.944 562.703 336.926 567.328C339.164 572.549 342 577.073 342 575.423C342 574.86 341.46 573.86 340.8 573.2C339.915 572.315 339.894 571.706 340.719 570.881C341.544 570.056 342.382 570.829 343.912 573.827C345.176 576.305 345.598 578.131 344.993 578.505C344.447 578.842 344 578.641 344 578.059C344 577.477 343.565 577 343.034 577C340.979 577 346.786 584.86 354.545 592.58C362.234 600.23 371.275 606.122 372.802 604.478C373.186 604.064 373.006 603.548 372.403 603.331C365.689 600.911 352.213 584.964 345.081 571C337.777 556.699 334.752 546.734 332.026 528C331.151 521.988 331.114 522.251 331.53 531.516ZM565.956 540.491C571.224 542.289 573.041 545.507 573.699 554.198C574.418 563.705 573.518 568.573 570.479 571.612C568.254 573.837 567.347 574 557.216 574H546.341L549.148 568.25C550.87 564.724 552.73 558.125 553.958 551.187C555.059 544.965 556.221 539.451 556.541 538.933C557.139 537.967 559.902 538.424 565.956 540.491ZM740.079 543.583C740.127 544.748 740.364 544.985 740.683 544.188C740.972 543.466 740.936 542.603 740.604 542.271C740.272 541.939 740.036 542.529 740.079 543.583ZM531 556.059C531 556.641 530.594 556.867 530.097 556.56C529.601 556.253 528.724 557.352 528.149 559.001C527.574 560.651 527.478 562 527.935 562C528.393 562 529.014 561.055 529.316 559.899C529.619 558.743 530.345 558.095 530.933 558.458C531.557 558.844 532 558.264 532 557.059C532 555.927 531.775 555 531.5 555C531.225 555 531 555.477 531 556.059ZM514.446 566.087C514.077 566.685 514.179 567.579 514.673 568.073C515.204 568.604 515.571 568.16 515.571 566.986C515.571 564.713 515.386 564.566 514.446 566.087ZM525.047 567C525.056 568.375 525.724 570.374 526.532 571.441C527.339 572.509 528 573.181 528 572.935C528 572.688 528.435 570.915 528.968 568.993C529.797 565.999 529.746 565.75 528.608 567.25C527.307 568.963 525.403 569.776 526.375 568.202C526.646 567.763 526.455 566.751 525.949 565.952C525.25 564.847 525.035 565.097 525.047 567ZM456.059 568.25C457.248 569.212 459.409 570.016 460.861 570.036C462.312 570.056 468.646 572.055 474.936 574.477L486.372 578.883L480.572 573.441C477.382 570.449 474.486 567.955 474.136 567.9C473.786 567.845 469.089 567.507 463.698 567.15C454.256 566.524 453.976 566.564 456.059 568.25ZM524 572.889C524 573.378 523.13 574.841 522.066 576.139C520.663 577.852 520.194 578.047 520.36 576.851C520.574 575.301 522.794 572 523.622 572C523.83 572 524 572.4 524 572.889ZM524.46 577.125C524.006 578.555 524.148 579.027 524.893 578.566C526.837 577.365 526.074 579.403 523.419 582.5C521.593 584.631 521.305 584.783 522.424 583.027C524.421 579.894 524.43 578.621 522.448 579.382C520.886 579.981 521.143 579.01 523.278 576.25C524.727 574.376 525.217 574.739 524.46 577.125ZM518.5 583C518.84 583.55 518.668 584 518.118 584C517.568 584 516.84 583.55 516.5 583C516.16 582.45 516.332 582 516.882 582C517.432 582 518.16 582.45 518.5 583ZM503.853 608.368C503.003 608.99 501.539 610.986 500.601 612.802C497.963 617.908 491.534 623.556 485.748 625.85C482.862 626.995 474.425 629.307 467 630.988C459.575 632.669 451.301 634.766 448.612 635.649L443.725 637.252L450.112 639.973C456.323 642.618 461.38 643.345 488.5 645.497C492.787 645.837 493.001 645.777 490 645.078C488.075 644.63 486.893 644.204 487.372 644.132C487.852 644.059 487.685 643.325 487 642.5C486.315 641.675 486.148 640.993 486.628 640.985C487.107 640.976 486.825 640.533 486 640C484.73 639.179 484.778 639.028 486.317 639.015C487.714 639.004 487.994 638.479 487.526 636.75C486.956 634.646 487.021 634.663 488.515 637L490.114 639.5L489.499 636.595C489.1 634.711 489.344 633.398 490.192 632.86C492.036 631.691 509.666 631.799 516.098 633.019C520.36 633.827 522.402 634.939 525.985 638.405C528.468 640.807 532.507 644.014 534.96 645.531C539.086 648.084 540.466 648.338 553.46 648.944C561.182 649.304 567.637 649.514 567.805 649.41C567.973 649.307 564.373 647.186 559.805 644.698C549.888 639.295 539.393 635.039 528.5 632.002C524.1 630.776 519.299 629.156 517.832 628.403C514.718 626.804 510.311 618.435 509.221 612.048C508.441 607.481 506.697 606.284 503.853 608.368ZM711.293 609.256C710.725 610.502 707.706 614.891 704.584 619.011C701.462 623.13 698.648 627.73 698.332 629.234C698.01 630.763 697.302 631.686 696.724 631.329C696.114 630.952 695.994 631.182 696.432 631.889C696.839 632.548 696.579 633.855 695.853 634.794C694.773 636.191 694.925 636.167 696.693 634.662C701.324 630.719 714.214 608.88 712.765 607.432C712.523 607.19 711.861 608.011 711.293 609.256ZM699.492 639.154C695.65 643.638 689.579 649.469 686.003 652.111C679.604 656.839 675.145 660.337 677.697 658.628C678.414 658.148 679 658.009 679 658.318C679 658.628 680.237 658.235 681.75 657.445C684.158 656.187 684.638 656.194 685.61 657.504C687.112 659.527 688.09 659.398 687.278 657.283C686.702 655.78 686.81 655.744 688.15 656.996C689.786 658.523 689.637 658.863 685.25 663.641C684.013 664.988 683 666.365 683 666.7C683 668.875 694.791 654.692 699.793 646.5C702.434 642.175 707.432 631 706.725 631C706.589 631 703.335 634.669 699.492 639.154ZM488 641C488 641.55 488.477 642 489.059 642C489.641 642 489.84 642.45 489.5 643C489.16 643.55 489.653 644 490.596 644C492.183 644 492.176 643.851 490.5 642C488.46 639.746 488 639.562 488 641ZM498.5 644C498.16 644.55 498.359 645 498.941 645C499.523 645 500 644.55 500 644C500 643.45 499.802 643 499.559 643C499.316 643 498.84 643.45 498.5 644ZM501.59 652.786C500.898 659.804 498.713 671.127 497.416 674.414C495.695 678.773 499.197 674.554 502.177 668.677C506.307 660.533 507.433 648.837 504.251 647.134C502.369 646.127 502.213 646.458 501.59 652.786ZM692.667 653.456C692.667 654.257 692.284 654.676 691.817 654.387C691.35 654.098 691.226 653.443 691.543 652.931C692.351 651.623 692.667 651.77 692.667 653.456ZM687.729 654.604C687.397 654.936 686.534 654.972 685.813 654.683C685.015 654.364 685.252 654.127 686.417 654.079C687.471 654.036 688.061 654.272 687.729 654.604ZM692 656.548C692 657.729 690.109 657.727 689.656 656.545C689.286 655.582 689.584 655.287 690.551 655.658C691.348 655.964 692 656.364 692 656.548ZM585.874 661.159C594.903 669.816 620.735 680.818 636 682.506C644.485 683.444 643.474 682.516 634.507 681.134C630.661 680.542 627.06 679.435 626.504 678.674C625.947 677.913 624.482 676.97 623.246 676.578C620.713 675.774 620.456 674.944 622.2 673.2C623.133 672.267 622.817 672 620.776 672C614.995 672 606.866 669.243 594.225 662.997L580.949 656.437L585.874 661.159ZM683.143 657.89C682.309 658.419 682.172 658.988 682.788 659.369C683.34 659.71 684.048 659.316 684.364 658.494C685.026 656.767 684.964 656.737 683.143 657.89ZM678.507 666.989C678.142 667.58 678.621 667.712 679.698 667.319C681.327 666.724 681.308 666.893 679.5 669.08L677.5 671.5L679.726 669.616C680.951 668.58 681.712 667.343 681.417 666.866C680.702 665.708 679.261 665.769 678.507 666.989ZM631.029 673.961C630.22 674.473 629.944 675.253 630.416 675.696C630.888 676.138 631.453 676.003 631.672 675.395C631.891 674.788 633.292 674.457 634.785 674.659C637.125 674.977 637.224 674.898 635.5 674.084C632.913 672.864 632.77 672.86 631.029 673.961ZM622.594 674.994C623.141 675.541 624.806 676.089 626.294 676.212C628.888 676.427 630.242 678 627.833 678C627.192 678 626.933 678.266 627.258 678.592C627.584 678.917 628.524 678.805 629.347 678.342C630.648 677.61 630.658 677.246 629.422 675.559C628.471 674.261 628 674.079 628 675.009C628 676.091 627.733 676.133 626.8 675.2C626.14 674.54 624.7 674 623.6 674C622.274 674 621.935 674.335 622.594 674.994ZM393.645 773.25C405.495 783.625 419.325 797.643 425.287 805.321C432.99 815.242 453.458 832.484 488 858.151C511.233 875.415 525.431 884.623 534.692 888.431L539.885 890.567L530.192 897C524.862 900.539 513.525 907.892 505 913.34C484.121 926.682 460.824 942.287 453.5 947.833C444.724 954.479 431.683 965.137 430.315 966.781C429.016 968.341 429.144 968.853 426.994 953.5C423.311 927.207 414.528 907.644 389.055 869C381.369 857.34 376.785 848.381 373.504 838.606C370.237 828.873 370.336 826.933 374.396 821.252C380.835 812.243 382.435 805.94 383.909 783.799C384.792 770.53 385.268 768 386.884 768C387.305 768 390.347 770.362 393.645 773.25ZM580 788.378C580 788.585 579.212 789.373 578.25 790.128C576.664 791.371 576.629 791.336 577.872 789.75C579.179 788.084 580 787.555 580 788.378ZM569 797C569 797.55 568.212 797.993 567.25 797.985C565.754 797.972 565.718 797.828 567 797C568.887 795.78 569 795.78 569 797ZM561 797.465C561 797.72 559.987 798.42 558.75 799.02C556.589 800.067 556.577 800.049 558.441 798.555C560.481 796.921 561 796.7 561 797.465ZM565.5 799C565.84 799.55 565.641 800 565.059 800C564.477 800 564 799.55 564 799C564 798.45 564.198 798 564.441 798C564.684 798 565.16 798.45 565.5 799ZM557 804.393C557 804.609 556.302 805.054 555.448 805.382C554.558 805.723 554.157 805.555 554.507 804.989C555.094 804.038 557 803.583 557 804.393Z" fill="black"/>
</g>
<defs>
<clipPath id="clip0_714_3820">
<rect width="1059" height="1023" fill="white"/>
</clipPath>
</defs>
</svg>
